<svg xmlns="http://www.w3.org/2000/svg" viewBox="0 0 512 512"><defs><style>.cls-1{fill:#4e5e9c;}.cls-2{fill:#485886;}.cls-3{fill:#8cc080;}.cls-4{fill:#272e54;}.cls-5{fill:#c9dcf1;}.cls-6{fill:#b7c9d8;}.cls-7{fill:#82b076;}.cls-8{fill:#2f3c6a;}.cls-9{fill:#334079;}.cls-10{fill:#2b3060;}.cls-11{fill:#d9e175;}.cls-12{fill:#ce404a;}.cls-13{fill:#91c7ee;}.cls-14{fill:#f0c85c;}.cls-15{fill:#da8ab3;}.cls-16{fill:#c27fa4;}.cls-17{fill:#b1d2a2;}.cls-18{fill:#df9231;}.cls-19{fill:none;stroke:#fff;stroke-linecap:round;stroke-miterlimit:10;stroke-width:10px;}</style></defs><title>Artificial Intelligence</title><g id="BULINE"><circle class="cls-1" cx="256" cy="256" r="256"/></g><g id="Icons"><path class="cls-2" d="M467.43,400.37q-5.15,7.53-10.8,14.65a256.05,256.05,0,0,1-402.34-1.37q-4.2-5.36-8.1-10.94A212.12,212.12,0,0,1,195,222.88q8.85-2.7,18-4.63a208.23,208.23,0,0,1,24-3.63h0q9.84-.93,19.92-.93a214.14,214.14,0,0,1,24.69,1.42A210.7,210.7,0,0,1,322,223.86l1.95.64a209.83,209.83,0,0,1,34.19,14.86,212.58,212.58,0,0,1,98.5,115A210,210,0,0,1,467.43,400.37Z"/><path class="cls-3" d="M116.46,187.88v20H59.69a5.41,5.41,0,0,0-5.4,5.4V413.65q-4.2-5.36-8.1-10.94-6.34-9-11.9-18.66V213.28a25.43,25.43,0,0,1,25.4-25.4Z"/><path class="cls-4" d="M112.92,173.42h17a0,0,0,0,1,0,0v48.92a0,0,0,0,1,0,0h-17a10,10,0,0,1-10-10v-29A10,10,0,0,1,112.92,173.42Z"/><path class="cls-3" d="M476.63,213.28V385.9q-4.35,7.39-9.2,14.47-5.15,7.53-10.8,14.65V213.28a5.4,5.4,0,0,0-5.4-5.4H394.46v-20h56.77A25.43,25.43,0,0,1,476.63,213.28Z"/><path class="cls-4" d="M390.92,173.42h17a0,0,0,0,1,0,0v48.92a0,0,0,0,1,0,0h-17a10,10,0,0,1-10-10v-29A10,10,0,0,1,390.92,173.42Z" transform="translate(788.92 395.76) rotate(-180)"/><path class="cls-5" d="M256,21h0A126,126,0,0,1,382,147V325.1a0,0,0,0,1,0,0H130a0,0,0,0,1,0,0V147A126,126,0,0,1,256,21Z"/><path class="cls-3" d="M256,46.72h0A102.17,102.17,0,0,1,358.13,148.89v150.5a0,0,0,0,1,0,0H153.79a0,0,0,0,1,0,0V148.89A102.17,102.17,0,0,1,256,46.72Z"/><path class="cls-6" d="M153.79,299.39V148.89a102.17,102.17,0,0,1,90-101.44,125.54,125.54,0,0,1,44.7-22.2A126.42,126.42,0,0,0,256,21h0A126,126,0,0,0,130,147V325.1H195V299.39Z"/><path class="cls-7" d="M153.79,148.89v150.5H195V147a125.79,125.79,0,0,1,48.77-99.56A102.17,102.17,0,0,0,153.79,148.89Z"/><rect class="cls-8" x="111.38" y="300.1" width="289.16" height="39.83" rx="17.53"/><path class="cls-4" d="M367.59,339.93v5.31a33.35,33.35,0,0,1-33.36,33.36H177.69a33.35,33.35,0,0,1-33.36-33.36v-5.31Z"/><rect class="cls-9" x="172.29" y="300.1" width="228.25" height="39.83" rx="17.53"/><path class="cls-10" d="M367.59,339.93v5.31a33.35,33.35,0,0,1-33.36,33.36H238.6a33.36,33.36,0,0,1-33.36-33.36v-5.31Z"/><rect class="cls-11" x="280.29" y="312.67" width="91.33" height="16" rx="8"/><circle class="cls-12" cx="140.96" cy="320.02" r="11"/><circle class="cls-13" cx="172.29" cy="320.02" r="11"/><circle class="cls-14" cx="204.96" cy="320.02" r="11"/><path class="cls-15" d="M343.5,151.92a32.34,32.34,0,0,0-25.35-31.57c0-.25,0-.51,0-.76a16.33,16.33,0,0,0-24.31-14.27,28.87,28.87,0,0,0-41.41-.45,23.24,23.24,0,0,0-40.6,9.31A16.34,16.34,0,0,0,188,128.68c0,.51,0,1,.07,1.53a28.88,28.88,0,0,0,9.28,56.23q.65,0,1.29,0a32.31,32.31,0,0,0,36.57,22.8,27.78,27.78,0,0,0,48.2,11.8c5.38,12.8,15.49,28.5,34.27,38.92a11,11,0,0,0,7.18,1.23h0A10.81,10.81,0,0,0,332.29,245c-5.26-8.89-10.7-22.86-11.78-43.41a23.28,23.28,0,0,0,3.69-5.84,15.71,15.71,0,0,0,1.95.12A16.34,16.34,0,0,0,338.63,169,32.24,32.24,0,0,0,343.5,151.92Z"/><path class="cls-16" d="M279.55,209.21a27.59,27.59,0,0,0,4.89,10.48,27.79,27.79,0,0,1-49.27-10.48,32.31,32.31,0,0,1-36.57-22.8q-.65,0-1.29,0A28.88,28.88,0,0,1,188,130.2c0-.5-.07-1-.07-1.52a16.34,16.34,0,0,1,23.89-14.5,23.24,23.24,0,0,1,40.6-9.31,28.78,28.78,0,0,1,20.49-8.53,29.17,29.17,0,0,1,3.11.17,23.25,23.25,0,0,0-19.82,17.67,16.34,16.34,0,0,0-23.89,14.5c0,.51,0,1,.07,1.52a28.89,28.89,0,0,0,9.28,56.24q.65,0,1.29,0a32.31,32.31,0,0,0,36.57,22.8Z"/><path class="cls-16" d="M298.09,103.67q-.64.58-1.26,1.2l-.57-.65A16.1,16.1,0,0,1,298.09,103.67Z"/><path class="cls-16" d="M276.05,96.51a23.17,23.17,0,0,1,20.21,7.71,16.37,16.37,0,0,0-2.41,1.1A28.81,28.81,0,0,0,276.05,96.51Z"/><path class="cls-16" d="M262.69,155.52l-.16-.15a21.65,21.65,0,0,1,30-31.24l.16.15a1.7,1.7,0,0,1-1.59,2.86,21.66,21.66,0,0,0-25.61,26.68A1.7,1.7,0,0,1,262.69,155.52Z"/><path class="cls-16" d="M321.82,151.38l.13.11A16.74,16.74,0,0,1,300.21,177a.69.69,0,0,1-.13-.11,1.32,1.32,0,0,1,1.1-2.28,16.75,16.75,0,0,0,18.56-21.75A1.32,1.32,0,0,1,321.82,151.38Z"/><circle class="cls-17" cx="234.03" cy="283.34" r="7.67"/><circle class="cls-17" cx="44.96" cy="320.02" r="7.67"/><circle class="cls-17" cx="44.96" cy="221.01" r="7.67"/><circle class="cls-17" cx="465.63" cy="320.02" r="7.67"/><circle class="cls-17" cx="465.63" cy="221.01" r="7.67"/><circle class="cls-17" cx="338.69" cy="214.67" r="7.67"/><circle class="cls-17" cx="219.69" cy="235.34" r="14.33"/><circle class="cls-17" cx="270.29" cy="253.01" r="14.33"/><circle class="cls-17" cx="255.96" cy="78.01" r="14.33"/><path class="cls-18" d="M420.42,390.09v62.13a256,256,0,0,1-328.92-.07V390.09A11.49,11.49,0,0,1,103,378.6h306A11.49,11.49,0,0,1,420.42,390.09Z"/><rect class="cls-13" x="136.96" y="390.01" width="239.97" height="71.33" rx="11.32"/><line class="cls-19" x1="164.03" y1="404.67" x2="211.43" y2="404.67"/><line class="cls-19" x1="230.75" y1="404.67" x2="278.15" y2="404.67"/><line class="cls-19" x1="302.46" y1="404.67" x2="349.86" y2="404.67"/><line class="cls-19" x1="164.03" y1="432.67" x2="187.73" y2="432.67"/><line class="cls-19" x1="207.05" y1="432.67" x2="254.45" y2="432.67"/><line class="cls-19" x1="284.44" y1="432.67" x2="302.64" y2="432.67"/><line class="cls-19" x1="329.59" y1="432.67" x2="347.79" y2="432.67"/></g></svg>